<svg fill="#ffffff" xmlns="http://www.w3.org/2000/svg" viewBox="0 0 48 48" width="48px" height="48px">
    <title>StackOverflow</title>
    <linearGradient id="color">
        <stop offset="45deg" stop-color="" />
        <stop offset="-20%" stop-color="#0072F5" />
        <stop offset="50%" stop-color="#06B7DB" />
        <!-- background-image: linear-gradient(45deg, #0072F5 -20%, #FF4ECD 50%) -->
    </linearGradient>
    <path fill="url(#color)"
        d="M 29.164062 5.0097656 A 1.50015 1.50015 0 0 0 27.962891 7.4492188 L 38.427734 20.845703 A 1.5006806 1.5006806 0 0 0 40.792969 18.998047 L 30.326172 5.6015625 A 1.50015 1.50015 0 0 0 29.164062 5.0097656 z M 23.386719 10.646484 A 1.50015 1.50015 0 0 0 22.466797 13.324219 L 35.679688 24.023438 A 1.50015 1.50015 0 1 0 37.566406 21.691406 L 24.355469 10.994141 A 1.50015 1.50015 0 0 0 23.386719 10.646484 z M 19.025391 17.429688 A 1.50015 1.50015 0 0 0 18.435547 20.287109 L 33.714844 27.738281 A 1.5002521 1.5002521 0 1 0 35.029297 25.041016 L 19.75 17.589844 A 1.50015 1.50015 0 0 0 19.025391 17.429688 z M 16.451172 25.009766 A 1.50015 1.50015 0 0 0 16.072266 27.974609 L 32.636719 31.798828 A 1.50015 1.50015 0 1 0 33.310547 28.876953 L 16.748047 25.052734 A 1.50015 1.50015 0 0 0 16.451172 25.009766 z M 8.4765625 29.978516 A 1.50015 1.50015 0 0 0 7 31.5 L 7 39.5 C 7 41.414955 8.5850452 43 10.5 43 L 37.5 43 C 39.414955 43 41 41.414955 41 39.5 L 41 31.5 A 1.50015 1.50015 0 1 0 38 31.5 L 38 39.5 C 38 39.795045 37.795045 40 37.5 40 L 10.5 40 C 10.204955 40 10 39.795045 10 39.5 L 10 31.5 A 1.50015 1.50015 0 0 0 8.4765625 29.978516 z M 15.5 33 A 1.50015 1.50015 0 1 0 15.5 36 L 32.5 36 A 1.50015 1.50015 0 1 0 32.5 33 L 15.5 33 z" />
</svg>